<?xml version="1.0" encoding="utf-8"?>
<!-- Generator: Adobe Illustrator 25.4.1, SVG Export Plug-In . SVG Version: 6.00 Build 0)  -->
<svg version="1.1" id="Layer_1" xmlns="http://www.w3.org/2000/svg" xmlns:xlink="http://www.w3.org/1999/xlink" x="0px" y="0px"
	 viewBox="0 0 2462 749" style="enable-background:new 0 0 2462 749;" xml:space="preserve">
<style type="text/css">
	.st0{display:none;fill:#213F85;}
	.st1{display:none;}
	.st2{display:inline;}
	.st3{fill:#3CAF59;}
	.st4{opacity:0.6;}
	.st5{opacity:0.85;}
</style>
<g>
	<path d="M272.89,43.5h98.98v343.97c0,96.87-61.77,150.92-152.33,150.92C127.58,538.39,63,482.94,63,383.96h98.28
		c0.7,41.41,19.66,66.69,56.86,66.69c36.5,0,54.76-24.57,54.76-63.18V43.5z"/>
	<path d="M579.42,538.39c-100.75,0-173.97-70.09-173.97-178.97c0-109.51,71.34-178.97,173.97-178.97
		c100.12,0,170.84,68.21,170.84,171.46c0,11.27-0.63,22.53-2.5,33.79H494.31c4.38,51.31,39.42,80.1,83.23,80.1
		c37.55,0,58.2-18.77,69.46-41.92h94.49C722.72,487.7,665.15,538.39,579.42,538.39z M494.94,326.88h164.58
		c-1.25-45.68-37.55-74.47-82.6-74.47C534.99,252.41,501.82,279.32,494.94,326.88z"/>
	<path d="M1025.6,344.62c0-56.36-30.66-86.76-76.97-86.76c-47.56,0-78.22,30.4-78.22,86.76v193.78h-87.61V187.57h87.61v43.69
		c22.53-29.76,60.07-48.76,104.51-48.76c80.72,0,138.3,53.19,138.3,150.08v205.81h-87.61V344.62z"/>
	<path d="M1306.06,182.5c54.44,0,93.86,25.03,114.51,55.07v-49.44h88.23v349.18c0,93.87-57.57,168.33-171.46,168.33
		c-97.62,0-165.83-48.81-174.59-128.28h86.98c8.76,31.29,41.3,51.94,85.11,51.94c48.18,0,85.73-27.53,85.73-91.99V483.5
		c-20.65,30.04-60.07,56.95-114.51,56.95c-88.24,0-158.32-71.96-158.32-180.22S1217.82,182.5,1306.06,182.5z M1328.58,259.47
		c-46.93,0-91.36,35.04-91.36,100.75s44.43,103.25,91.36,103.25c48.18,0,91.99-36.29,91.99-102S1376.77,259.47,1328.58,259.47z"/>
	<path d="M1699.04,180.45c55.69,0,93.86,26.29,114.51,55.07v-49.44h88.23v346.68h-88.23v-50.69
		c-20.65,30.04-60.07,56.32-115.14,56.32c-87.61,0-157.7-71.96-157.7-180.22S1610.81,180.45,1699.04,180.45z M1721.57,257.42
		c-46.93,0-91.36,35.04-91.36,100.75s44.43,103.25,91.36,103.25c48.18,0,91.99-36.29,91.99-102S1769.75,257.42,1721.57,257.42z"/>
	<g>
		<polygon points="2399,539.68 2286.43,539.68 2127.81,291.51 2240.38,291.51 		"/>
		<polygon points="2399,43.35 2286.43,43.35 2127.81,291.51 2240.38,291.51 		"/>
		<polygon points="2159.08,161.04 2102.23,248.02 1969.19,43.35 2081.76,43.35 		"/>
		<polygon points="2159.08,421.99 2102.23,335.01 1969.19,539.68 2081.76,539.68 		"/>
	</g>
</g>
</svg>
